<svg width="72" height="72" viewBox="0 0 72 72" fill="none" xmlns="http://www.w3.org/2000/svg">
<path d="M36 46.5C37.65 46.5 39.0625 45.9125 40.2375 44.7375C41.4125 43.5625 42 42.15 42 40.5C42 38.85 41.4125 37.4375 40.2375 36.2625C39.0625 35.0875 37.65 34.5 36 34.5C34.35 34.5 32.9375 35.0875 31.7625 36.2625C30.5875 37.4375 30 38.85 30 40.5C30 42.15 30.5875 43.5625 31.7625 44.7375C32.9375 45.9125 34.35 46.5 36 46.5ZM12 63C10.35 63 8.9375 62.4125 7.7625 61.2375C6.5875 60.0625 6 58.65 6 57V24C6 22.35 6.5875 20.9375 7.7625 19.7625C8.9375 18.5875 10.35 18 12 18H24V12C24 10.35 24.5875 8.9375 25.7625 7.7625C26.9375 6.5875 28.35 6 30 6H42C43.65 6 45.0625 6.5875 46.2375 7.7625C47.4125 8.9375 48 10.35 48 12V18H60C61.65 18 63.0625 18.5875 64.2375 19.7625C65.4125 20.9375 66 22.35 66 24V57C66 58.65 65.4125 60.0625 64.2375 61.2375C63.0625 62.4125 61.65 63 60 63H12ZM12 57H60V24H12V57ZM30 18H42V12H30V18Z" fill="url(#paint0_linear_377_7441)"/>
<defs>
<linearGradient id="paint0_linear_377_7441" x1="36" y1="6" x2="36" y2="63" gradientUnits="userSpaceOnUse">
<stop stop-color="#FF6E00"/>
<stop offset="1" stop-color="#DA1884"/>
</linearGradient>
</defs>
</svg>
