<svg width="20" height="20" viewBox="0 0 20 20" fill="none" xmlns="http://www.w3.org/2000/svg">
<path d="M13.1048 6.43758L15.6048 3.93758L14.4173 2.75008L11.9173 5.25008L13.1048 6.43758ZM10.0007 4.45841V0.916748H8.33399V4.45841H10.0007ZM3.93815 15.6042L6.43815 13.1042L5.25065 11.9167L2.75065 14.4167L3.93815 15.6042ZM5.25065 6.43758L6.43815 5.25008L3.93815 2.75008L2.75065 3.93758L5.25065 6.43758ZM4.45899 10.0001V8.33341H0.917318V10.0001H4.45899ZM15.7298 18.0834L18.084 15.7292C18.2507 15.5626 18.334 15.3681 18.334 15.1459C18.334 14.9237 18.2507 14.7292 18.084 14.5626L10.5215 6.97925C10.0354 6.49314 9.4451 6.25008 8.75065 6.25008C8.05621 6.25008 7.46593 6.49314 6.97982 6.97925C6.49371 7.46536 6.25065 8.05564 6.25065 8.75008C6.25065 9.44453 6.49371 10.0348 6.97982 10.5209L14.5632 18.0834C14.7298 18.2501 14.9243 18.3334 15.1465 18.3334C15.3687 18.3334 15.5632 18.2501 15.7298 18.0834ZM9.91732 11.1042L10.2194 10.8126L10.5215 10.5209L10.8132 10.2292L11.1048 9.93758L10.5215 10.5209L9.91732 11.1042ZM15.1465 16.3334L9.91732 11.1042L11.1048 9.93758L16.3132 15.1459L15.1465 16.3334Z" fill="url(#paint0_linear_179_5303)"/>
<defs>
<linearGradient id="paint0_linear_179_5303" x1="9.62565" y1="0.916748" x2="9.62565" y2="18.3334" gradientUnits="userSpaceOnUse">
<stop stop-color="#FF6E00"/>
<stop offset="1" stop-color="#DA1884"/>
</linearGradient>
</defs>
</svg>
