<svg width="18" height="18" viewBox="0 0 18 18" fill="none" xmlns="http://www.w3.org/2000/svg">
<path d="M1.5 15.75V14.25H8.25V5.86875C7.925 5.75625 7.64375 5.58125 7.40625 5.34375C7.16875 5.10625 6.99375 4.825 6.88125 4.5H4.5L6.75 9.75C6.75 10.375 6.49375 10.9062 5.98125 11.3438C5.46875 11.7812 4.85 12 4.125 12C3.4 12 2.78125 11.7812 2.26875 11.3438C1.75625 10.9062 1.5 10.375 1.5 9.75L3.75 4.5H2.25V3H6.88125C7.03125 2.5625 7.3 2.20312 7.6875 1.92188C8.075 1.64062 8.5125 1.5 9 1.5C9.4875 1.5 9.925 1.64062 10.3125 1.92188C10.7 2.20312 10.9688 2.5625 11.1188 3H15.75V4.5H14.25L16.5 9.75C16.5 10.375 16.2438 10.9062 15.7313 11.3438C15.2188 11.7812 14.6 12 13.875 12C13.15 12 12.5312 11.7812 12.0188 11.3438C11.5063 10.9062 11.25 10.375 11.25 9.75L13.5 4.5H11.1188C11.0063 4.825 10.8313 5.10625 10.5938 5.34375C10.3563 5.58125 10.075 5.75625 9.75 5.86875V14.25H16.5V15.75H1.5ZM12.4688 9.75H15.2813L13.875 6.4875L12.4688 9.75ZM2.71875 9.75H5.53125L4.125 6.4875L2.71875 9.75ZM9 4.5C9.2125 4.5 9.39063 4.42813 9.53438 4.28438C9.67813 4.14062 9.75 3.9625 9.75 3.75C9.75 3.5375 9.67813 3.35938 9.53438 3.21563C9.39063 3.07188 9.2125 3 9 3C8.7875 3 8.60938 3.07188 8.46563 3.21563C8.32188 3.35938 8.25 3.5375 8.25 3.75C8.25 3.9625 8.32188 4.14062 8.46563 4.28438C8.60938 4.42813 8.7875 4.5 9 4.5Z" fill="#653819"/>
</svg>
