<svg width="18" height="18" viewBox="0 0 18 18" fill="none" xmlns="http://www.w3.org/2000/svg">
<path d="M3.75 6V14.25H14.25V6H12V12L9 10.5L6 12V6H3.75ZM3.75 15.75C3.3375 15.75 2.98438 15.6031 2.69063 15.3094C2.39687 15.0156 2.25 14.6625 2.25 14.25V4.89375C2.25 4.71875 2.27813 4.55 2.33438 4.3875C2.39062 4.225 2.475 4.075 2.5875 3.9375L3.525 2.79375C3.6625 2.61875 3.83438 2.48438 4.04063 2.39062C4.24688 2.29688 4.4625 2.25 4.6875 2.25H13.3125C13.5375 2.25 13.7531 2.29688 13.9594 2.39062C14.1656 2.48438 14.3375 2.61875 14.475 2.79375L15.4125 3.9375C15.525 4.075 15.6094 4.225 15.6656 4.3875C15.7219 4.55 15.75 4.71875 15.75 4.89375V14.25C15.75 14.6625 15.6031 15.0156 15.3094 15.3094C15.0156 15.6031 14.6625 15.75 14.25 15.75H3.75ZM4.05 4.5H13.95L13.3125 3.75H4.6875L4.05 4.5ZM7.5 6V9.5625L9 8.8125L10.5 9.5625V6H7.5Z" fill="#653819"/>
</svg>
