<svg width="18" height="18" viewBox="0 0 18 18" fill="none" xmlns="http://www.w3.org/2000/svg">
<path d="M6.75 10.5H8.25V6.75H6.75V10.5ZM3.75 9.375C3.175 9.0875 2.71875 8.67188 2.38125 8.12813C2.04375 7.58438 1.875 6.99375 1.875 6.35625C1.875 5.41875 2.19688 4.625 2.84063 3.975C3.48438 3.325 4.275 3 5.2125 3C5.3625 3 5.51563 3.0125 5.67188 3.0375C5.82813 3.0625 5.98125 3.09375 6.13125 3.13125C6.44375 2.61875 6.85 2.21875 7.35 1.93125C7.85 1.64375 8.4 1.5 9 1.5C9.6 1.5 10.15 1.64375 10.65 1.93125C11.15 2.21875 11.5563 2.61875 11.8688 3.13125C12.0188 3.09375 12.1688 3.0625 12.3188 3.0375C12.4688 3.0125 12.625 3 12.7875 3C13.725 3 14.5156 3.325 15.1594 3.975C15.8031 4.625 16.125 5.41875 16.125 6.35625C16.125 6.99375 15.9563 7.58438 15.6188 8.12813C15.2813 8.67188 14.825 9.0875 14.25 9.375V13.5H3.75V9.375ZM9.75 10.5H11.25V6.75H9.75V10.5ZM5.25 12H12.75V8.45625L13.575 8.04375C13.9 7.88125 14.1563 7.65313 14.3438 7.35938C14.5313 7.06563 14.625 6.7375 14.625 6.375C14.625 5.85 14.4469 5.40625 14.0906 5.04375C13.7344 4.68125 13.3 4.5 12.7875 4.5C12.65 4.5 12.525 4.5125 12.4125 4.5375C12.3 4.5625 12.1813 4.59375 12.0563 4.63125L11.175 4.875L10.5938 3.9C10.4188 3.6125 10.1906 3.39063 9.90938 3.23438C9.62813 3.07813 9.325 3 9 3C8.675 3 8.37188 3.07813 8.09063 3.23438C7.80938 3.39063 7.58125 3.6125 7.40625 3.9L6.825 4.875L5.925 4.63125C5.8 4.60625 5.67813 4.57813 5.55938 4.54688C5.44063 4.51563 5.31875 4.5 5.19375 4.5C4.68125 4.5 4.25 4.68125 3.9 5.04375C3.55 5.40625 3.375 5.85 3.375 6.375C3.375 6.7375 3.46875 7.06563 3.65625 7.35938C3.84375 7.65313 4.1 7.88125 4.425 8.04375L5.25 8.45625V12ZM3.75 13.5H5.25V15H12.75V13.5H14.25V16.5H3.75V13.5Z" fill="#653819"/>
</svg>
