<svg width="186" height="186" viewBox="0 0 186 186" fill="none" xmlns="http://www.w3.org/2000/svg">
<path d="M92.8144 185.988C74.9962 186.25 59.0339 182.31 44.9279 174.166C31.0693 166.023 20.1804 154.858 12.2612 140.673C4.58951 126.225 0.506199 110.2 0.011249 92.5998C-0.236226 74.9993 3.5996 59.2376 11.5188 45.3148C19.438 31.392 30.4506 20.3588 44.5567 12.2153C58.9103 4.07176 74.9962 0 92.8144 0C110.138 0 125.729 3.94042 139.587 11.8213C153.693 19.7021 164.83 30.7353 172.996 44.9207C181.163 59.1063 185.494 74.9993 185.989 92.5998C186.236 109.675 182.4 125.305 174.481 139.491C166.562 153.414 155.425 164.578 141.072 172.984C126.966 181.391 110.88 185.725 92.8144 185.988ZM93.928 128.458C100.61 128.458 106.425 125.699 111.375 120.183C116.324 114.666 118.799 108.23 118.799 100.875C118.799 93.5192 116.324 87.2146 111.375 81.9607C106.425 76.4441 100.61 73.6858 93.928 73.6858C87.2462 73.6858 81.4305 76.4441 76.481 81.9607C71.5315 87.2146 69.0567 93.5192 69.0567 100.875C69.0567 108.23 71.5315 114.666 76.481 120.183C81.4305 125.699 87.2462 128.458 93.928 128.458Z" fill="#FFD39E"/>
<path fill-rule="evenodd" clip-rule="evenodd" d="M62.1026 16.0312C67.4862 4.32253 81.4539 -0.24803 92.4864 6.08878L95.547 7.84659C100.886 10.9132 107.137 11.8755 113.12 10.5507L114.708 10.1991C128.915 7.05283 143.237 15.0224 148.377 28.9355C150.912 35.7964 155.813 41.4727 162.156 44.8915C175.02 51.8241 180.987 67.3447 176.184 81.3788L175.827 82.4208C173.688 88.6703 173.86 95.5058 176.31 101.637L177.143 103.723C182.202 116.384 176.308 130.844 163.956 136.072C156.557 139.204 151.144 145.867 149.487 153.882L149.192 155.312C146.208 169.751 132.45 179.199 118.212 176.809C111.629 175.705 104.797 177.089 99.1554 180.726L98.5011 181.148C86.2047 189.076 70.0833 186.596 60.6026 175.318L59.4454 173.942C55.5159 169.268 50.0503 166.226 44.0802 165.391L43.2726 165.277C29.3123 163.324 20.0118 149.515 23.2042 135.477L23.6085 133.702C25.7248 124.397 21.7204 114.757 13.7022 109.853C2.43927 102.966 -0.21484 87.4523 8.09385 77.0693L9.7042 75.0566C13.3673 70.4791 15.265 64.6868 15.0392 58.7743L14.9923 57.5302C14.4227 42.6157 25.5851 29.9636 40.1456 29.0194L43.7696 28.7841C51.6974 28.2701 58.7219 23.3836 62.1026 16.0312ZM99.8038 61.8114C95.0373 56.6011 86.9066 56.6304 82.1974 61.8749L79.1134 65.3095C77.646 66.9437 75.7646 68.1389 73.6739 68.7655L66.881 70.8017C61.1221 72.5278 57.528 78.3233 58.4835 84.3427L59.6114 91.4433C59.9584 93.6286 59.709 95.868 58.8917 97.9179L56.2364 104.578C53.9851 110.225 56.2168 116.698 61.4503 119.702L67.6231 123.246C69.5231 124.337 71.0946 125.934 72.1661 127.863L75.6476 134.133C78.5992 139.447 84.9757 141.723 90.546 139.45L97.1163 136.769C99.1386 135.944 101.347 135.696 103.5 136.053L108.485 136.877C115.226 137.992 121.507 133.166 122.272 126.285L122.701 122.414C123.104 118.792 125.091 115.548 128.113 113.581L131.881 111.13C137.58 107.421 139.096 99.6477 135.222 93.9989L132.258 89.6777C131.011 87.8596 130.278 85.7307 130.137 83.5224L129.803 78.3036C129.364 71.431 123.382 66.2952 116.63 66.995L111.527 67.5243C107.791 67.9116 104.089 66.4944 101.53 63.6982L99.8038 61.8114Z" fill="#FF8B95"/>
<rect width="11.3393" height="2.86736" rx="1.43368" transform="matrix(0.859932 0.510408 -0.493148 0.869946 119.777 28.8374)" fill="#BAE1FF"/>
<rect width="11.5232" height="2.82117" rx="1.41059" transform="matrix(0.207779 0.978176 -0.976148 0.217104 93.127 37.1294)" fill="#BAE1FF"/>
<rect width="11.3089" height="2.87486" rx="1.43743" transform="matrix(-0.926223 0.376976 -0.362304 -0.93206 115.084 57.5781)" fill="#6D3B00"/>
<rect width="11.3089" height="2.87486" rx="1.43743" transform="matrix(-0.926223 0.376976 -0.362304 -0.93206 173.338 118.588)" fill="#6D3B00"/>
<rect width="11.3842" height="2.85622" rx="1.42811" transform="matrix(-0.75259 -0.658489 0.641231 -0.767348 133.127 24.1758)" fill="#E9B90D"/>
<rect width="11.3089" height="2.87486" rx="1.43743" transform="matrix(-0.926223 0.376976 -0.362304 -0.93206 165.107 96.4004)" fill="white"/>
<rect width="11.3122" height="2.87404" rx="1.43702" transform="matrix(-0.919189 -0.393816 0.378708 -0.925516 106.23 167.075)" fill="#6D3B00"/>
<rect width="11.4168" height="2.84808" rx="1.42404" transform="matrix(-0.664769 0.747049 -0.73164 -0.681691 110.275 22.8345)" fill="#FF4996"/>
<rect width="11.4168" height="2.84808" rx="1.42404" transform="matrix(-0.664769 0.747049 -0.73164 -0.681691 136.492 56.7319)" fill="#63904D"/>
<rect width="11.5197" height="2.82206" rx="1.41103" transform="matrix(0.236771 0.971565 -0.968953 0.247245 145.75 43.9878)" fill="#FF4996"/>
<rect width="11.4168" height="2.84808" rx="1.42404" transform="matrix(-0.664769 0.747049 -0.73164 -0.681691 70.2637 50.9648)" fill="#A46114"/>
<rect width="11.2761" height="2.88288" rx="1.44144" transform="matrix(-0.993227 -0.11619 0.111034 -0.993817 68.0488 40.4858)" fill="white"/>
<rect width="11.2741" height="2.88339" rx="1.44169" transform="matrix(-0.997308 -0.0733298 0.0700511 -0.997543 42.7676 46.0171)" fill="#FF4996"/>
<rect width="11.2741" height="2.88339" rx="1.44169" transform="matrix(-0.997308 -0.0733298 0.0700511 -0.997543 52.1074 77.2378)" fill="#FF4996"/>
<rect width="11.3038" height="2.87612" rx="1.43806" transform="matrix(-0.937015 0.349289 -0.335395 -0.942078 34.0469 60.3481)" fill="#BAE1FF"/>
<rect width="11.4368" height="2.84305" rx="1.42153" transform="matrix(-0.605 0.796225 -0.78255 -0.622587 148.645 135.863)" fill="#E9B90D"/>
<rect width="11.4224" height="2.84666" rx="1.42333" transform="matrix(-0.648425 0.761279 -0.746316 -0.665591 155.625 113.8)" fill="#67A1CD"/>
<rect width="11.2895" height="2.87963" rx="1.43981" transform="matrix(-0.966502 -0.256661 0.24584 -0.969311 145.141 90.3257)" fill="#E9B90D"/>
<rect width="11.2895" height="2.87963" rx="1.43981" transform="matrix(-0.966502 -0.256661 0.24584 -0.969311 174.365 64.8047)" fill="#6D3B00"/>
<rect width="11.4734" height="2.83382" rx="1.41691" transform="matrix(-0.477911 -0.878408 0.868903 -0.494983 158.094 76.3521)" fill="#67A1CD"/>
<rect width="11.5233" height="2.82115" rx="1.41058" transform="matrix(0.207129 -0.978314 0.976299 0.216429 129.457 164.438)" fill="#BAE1FF"/>
<rect width="11.3165" height="2.87299" rx="1.43649" transform="matrix(0.910056 -0.414487 0.398882 0.917002 68.7129 164.133)" fill="white"/>
<rect width="11.3165" height="2.87299" rx="1.43649" transform="matrix(0.910056 -0.414487 0.398882 0.917002 60.5918 141.667)" fill="#63914D"/>
<rect width="11.3165" height="2.77628" rx="1.38814" transform="matrix(0.910056 -0.414487 0.398882 0.917002 29.5918 120.039)" fill="#E9B90D"/>
<rect width="11.2729" height="2.78662" rx="1.39331" transform="matrix(0.999677 0.0254296 -0.0242875 0.999705 42.375 156.361)" fill="#6D3B00"/>
<rect width="11.3632" height="2.76512" rx="1.38256" transform="matrix(0.804383 -0.594112 0.576422 0.817153 69.3809 20.2822)" fill="#63904D"/>
<rect width="11.2895" height="2.87963" rx="1.43981" transform="matrix(-0.966502 -0.256661 0.24584 -0.969311 116.096 150.575)" fill="#FF4996"/>
<rect width="11.4856" height="2.83073" rx="1.41537" transform="matrix(-0.427514 -0.904009 0.896155 -0.443741 45.7734 147.174)" fill="#FF4996"/>
<rect width="11.5106" height="2.82437" rx="1.41218" transform="matrix(0.299308 -0.954157 0.950067 0.312048 23.2051 104.591)" fill="#67A1CD"/>
<rect width="11.4574" height="2.83787" rx="1.41894" transform="matrix(-0.537126 -0.843502 0.832021 -0.554744 52.6543 104.959)" fill="#BAE1FF"/>
<rect width="11.4574" height="2.83787" rx="1.41894" transform="matrix(-0.537126 -0.843502 0.832021 -0.554744 128.744 133.797)" fill="white"/>
</svg>
