<svg width="14" height="17" viewBox="0 0 14 17" fill="none" xmlns="http://www.w3.org/2000/svg">
<path d="M13.5006 7.73256H10.2898C10.1101 7.73256 9.96917 7.55479 9.96917 7.33486V0.620697C9.96917 0.277212 9.7323 0 9.43468 0H4.57515C4.27998 0 4.04067 0.2772 4.04067 0.620697L4.03945 7.33486C4.03945 7.55481 3.89976 7.73256 3.71879 7.73256H0.510455C0.317319 7.73256 0.149675 7.84857 0.0622325 8.05194C-0.0252259 8.23725 -0.0191528 8.44965 0.0719501 8.63045L6.35061 16.5601C6.48422 16.8298 6.72961 17 7.00045 17C7.27133 17 7.51672 16.8298 7.65031 16.5601L13.929 8.63045C14.0188 8.44967 14.0249 8.23726 13.9387 8.05194C13.8512 7.85158 13.6812 7.73256 13.4941 7.73256H13.5006Z" fill="url(#paint0_linear_179_11841)"/>
<defs>
<linearGradient id="paint0_linear_179_11841" x1="7" y1="0" x2="7" y2="17" gradientUnits="userSpaceOnUse">
<stop stop-color="#FF6E00"/>
<stop offset="1" stop-color="#DA1884"/>
</linearGradient>
</defs>
</svg>
