<svg width="72" height="72" viewBox="0 0 72 72" fill="none" xmlns="http://www.w3.org/2000/svg">
<path d="M63.0744 33.15V57C63.0744 58.65 62.4869 60.0625 61.3119 61.2375C60.1369 62.4125 58.7244 63 57.0744 63H15.0744C13.4244 63 12.0119 62.4125 10.8369 61.2375C9.66191 60.0625 9.07441 58.65 9.07441 57V33.15C7.92441 32.1 7.03691 30.75 6.41191 29.1C5.78691 27.45 5.77441 25.65 6.37441 23.7L9.52441 13.5C9.92441 12.2 10.6369 11.125 11.6619 10.275C12.6869 9.425 13.8744 9 15.2244 9H56.9244C58.2744 9 59.4494 9.4125 60.4494 10.2375C61.4494 11.0625 62.1744 12.15 62.6244 13.5L65.7744 23.7C66.3744 25.65 66.3619 27.425 65.7369 29.025C65.1119 30.625 64.2244 32 63.0744 33.15ZM42.6744 30C44.0244 30 45.0494 29.5375 45.7494 28.6125C46.4494 27.6875 46.7244 26.65 46.5744 25.5L44.9244 15H39.0744V26.1C39.0744 27.15 39.4244 28.0625 40.1244 28.8375C40.8244 29.6125 41.6744 30 42.6744 30ZM29.1744 30C30.3244 30 31.2619 29.6125 31.9869 28.8375C32.7119 28.0625 33.0744 27.15 33.0744 26.1V15H27.2244L25.5744 25.5C25.3744 26.7 25.6369 27.75 26.3619 28.65C27.0869 29.55 28.0244 30 29.1744 30ZM15.8244 30C16.7244 30 17.5119 29.675 18.1869 29.025C18.8619 28.375 19.2744 27.55 19.4244 26.55L21.0744 15H15.2244L12.2244 25.05C11.9244 26.05 12.0869 27.125 12.7119 28.275C13.3369 29.425 14.3744 30 15.8244 30ZM56.3244 30C57.7744 30 58.8244 29.425 59.4744 28.275C60.1244 27.125 60.2744 26.05 59.9244 25.05L56.7744 15H51.0744L52.7244 26.55C52.8744 27.55 53.2869 28.375 53.9619 29.025C54.6369 29.675 55.4244 30 56.3244 30ZM15.0744 57H57.0744V35.85C56.8244 35.95 56.6619 36 56.5869 36H56.3244C54.9744 36 53.7869 35.775 52.7619 35.325C51.7369 34.875 50.7244 34.15 49.7244 33.15C48.8244 34.05 47.7994 34.75 46.6494 35.25C45.4994 35.75 44.2744 36 42.9744 36C41.6244 36 40.3619 35.75 39.1869 35.25C38.0119 34.75 36.9744 34.05 36.0744 33.15C35.2244 34.05 34.2369 34.75 33.1119 35.25C31.9869 35.75 30.7744 36 29.4744 36C28.0244 36 26.7119 35.75 25.5369 35.25C24.3619 34.75 23.3244 34.05 22.4244 33.15C21.3744 34.2 20.3369 34.9375 19.3119 35.3625C18.2869 35.7875 17.1244 36 15.8244 36H15.4869C15.3619 36 15.2244 35.95 15.0744 35.85V57Z" fill="url(#paint0_linear_377_7389)"/>
<defs>
<linearGradient id="paint0_linear_377_7389" x1="36.0744" y1="9" x2="36.0744" y2="63" gradientUnits="userSpaceOnUse">
<stop stop-color="#FF6E00"/>
<stop offset="1" stop-color="#DA1884"/>
</linearGradient>
</defs>
</svg>
