<svg width="18" height="18" viewBox="0 0 18 18" fill="none" xmlns="http://www.w3.org/2000/svg">
<path d="M3.2625 15.525C3.0125 15.625 2.78125 15.5969 2.56875 15.4406C2.35625 15.2844 2.25 15.075 2.25 14.8125V4.3125C2.25 4.15 2.29688 4.00625 2.39062 3.88125C2.48438 3.75625 2.6125 3.6625 2.775 3.6L6.75 2.25L11.25 3.825L14.7375 2.475C14.9875 2.375 15.2188 2.40313 15.4313 2.55938C15.6438 2.71563 15.75 2.925 15.75 3.1875V9.50625C15.5625 9.21875 15.3406 8.95625 15.0844 8.71875C14.8281 8.48125 14.55 8.275 14.25 8.1V4.275L12 5.1375V7.5C11.7375 7.5 11.4813 7.52188 11.2313 7.56563C10.9813 7.60938 10.7375 7.675 10.5 7.7625V5.1375L7.5 4.0875V13.8938L3.2625 15.525ZM3.75 13.725L6 12.8625V4.0875L3.75 4.8375V13.725ZM13.0594 13.125C13.3406 12.875 13.4875 12.5 13.5 12C13.5125 11.575 13.3719 11.2188 13.0781 10.9313C12.7844 10.6438 12.425 10.5 12 10.5C11.575 10.5 11.2188 10.6438 10.9313 10.9313C10.6438 11.2188 10.5 11.575 10.5 12C10.5 12.425 10.6438 12.7812 10.9313 13.0688C11.2188 13.3563 11.575 13.5 12 13.5C12.425 13.5 12.7781 13.375 13.0594 13.125ZM12 15C11.175 15 10.4688 14.7063 9.88125 14.1188C9.29375 13.5312 9 12.825 9 12C9 11.175 9.29375 10.4688 9.88125 9.88125C10.4688 9.29375 11.175 9 12 9C12.825 9 13.5312 9.29375 14.1188 9.88125C14.7063 10.4688 15 11.175 15 12C15 12.2875 14.9656 12.5594 14.8969 12.8156C14.8281 13.0719 14.725 13.3125 14.5875 13.5375L16.5 15.45L15.45 16.5L13.5375 14.5875C13.3125 14.725 13.0719 14.8281 12.8156 14.8969C12.5594 14.9656 12.2875 15 12 15Z" fill="#653819"/>
</svg>
