<svg width="17" height="17" viewBox="0 0 17 17" fill="none" xmlns="http://www.w3.org/2000/svg">
<path d="M15.45 8.24981C15.45 4.27321 12.2266 1.04981 8.25 1.04981C4.2734 1.04981 1.05 4.27321 1.05 8.24981C1.05 12.2264 4.2734 15.4498 8.25 15.4498C12.2266 15.4498 15.45 12.2264 15.45 8.24981ZM10.45 8.24994C10.45 7.0351 9.46484 6.04994 8.25 6.04994C7.03516 6.04994 6.05 7.0351 6.05 8.24994C6.05 9.46478 7.03516 10.4499 8.25 10.4499C9.46484 10.4499 10.45 9.46478 10.45 8.24994ZM11.25 8.25C11.25 9.90704 9.90704 11.25 8.25 11.25C6.59296 11.25 5.25 9.90704 5.25 8.25C5.25 6.59296 6.59296 5.25 8.25 5.25C9.90704 5.25 11.25 6.59296 11.25 8.25ZM16.25 8.25C16.25 12.668 12.668 16.25 8.25 16.25C3.832 16.25 0.25 12.668 0.25 8.25C0.25 3.832 3.832 0.25 8.25 0.25C12.668 0.25 16.25 3.832 16.25 8.25Z" fill="#FF671F" stroke="#FF671F" stroke-width="0.5"/>
</svg>
