<svg width="18" height="18" viewBox="0 0 18 18" fill="none" xmlns="http://www.w3.org/2000/svg">
<path d="M4.5 16.5C3.875 16.5 3.34375 16.2813 2.90625 15.8438C2.46875 15.4063 2.25 14.875 2.25 14.25V12H4.5V1.5L5.625 2.625L6.75 1.5L7.875 2.625L9 1.5L10.125 2.625L11.25 1.5L12.375 2.625L13.5 1.5L14.625 2.625L15.75 1.5V14.25C15.75 14.875 15.5313 15.4063 15.0938 15.8438C14.6563 16.2813 14.125 16.5 13.5 16.5H4.5ZM13.5 15C13.7125 15 13.8906 14.9281 14.0344 14.7844C14.1781 14.6406 14.25 14.4625 14.25 14.25V3.75H6V12H12.75V14.25C12.75 14.4625 12.8219 14.6406 12.9656 14.7844C13.1094 14.9281 13.2875 15 13.5 15ZM6.75 6.75V5.25H11.25V6.75H6.75ZM6.75 9V7.5H11.25V9H6.75ZM12.75 6.75C12.5375 6.75 12.3594 6.67813 12.2156 6.53438C12.0719 6.39062 12 6.2125 12 6C12 5.7875 12.0719 5.60938 12.2156 5.46563C12.3594 5.32188 12.5375 5.25 12.75 5.25C12.9625 5.25 13.1406 5.32188 13.2844 5.46563C13.4281 5.60938 13.5 5.7875 13.5 6C13.5 6.2125 13.4281 6.39062 13.2844 6.53438C13.1406 6.67813 12.9625 6.75 12.75 6.75ZM12.75 9C12.5375 9 12.3594 8.92813 12.2156 8.78438C12.0719 8.64063 12 8.4625 12 8.25C12 8.0375 12.0719 7.85938 12.2156 7.71563C12.3594 7.57188 12.5375 7.5 12.75 7.5C12.9625 7.5 13.1406 7.57188 13.2844 7.71563C13.4281 7.85938 13.5 8.0375 13.5 8.25C13.5 8.4625 13.4281 8.64063 13.2844 8.78438C13.1406 8.92813 12.9625 9 12.75 9ZM4.5 15H11.25V13.5H3.75V14.25C3.75 14.4625 3.82188 14.6406 3.96563 14.7844C4.10938 14.9281 4.2875 15 4.5 15Z" fill="#653819"/>
</svg>
