<svg width="771" height="117" viewBox="0 0 771 117" fill="none" xmlns="http://www.w3.org/2000/svg">
<path d="M52.7215 21.8546C53.3868 21.8546 54.0404 22.0253 54.6115 22.3433C55.1826 22.6671 55.6595 23.1263 55.9834 23.6856L85.6818 74.4757C85.9939 75.0115 86.1588 75.612 86.1588 76.2301C86.1588 76.8424 85.9939 77.4488 85.6818 77.9846L76.1788 94.2395C75.855 94.7929 75.3839 95.258 74.8069 95.5818C74.2358 95.9056 73.5822 96.0764 72.9169 96.0764H13.3492C12.6839 96.0764 12.0304 95.9056 11.4592 95.5818C10.8881 95.258 10.4112 94.7929 10.0873 94.2395L0.5902 77.9846C0.278143 77.4488 0.113281 76.8424 0.113281 76.2301C0.113281 75.6178 0.278143 75.0115 0.5902 74.4757L30.2828 23.6856C30.6066 23.1322 31.0835 22.6671 31.6547 22.3433C32.2258 22.0195 32.8793 21.8546 33.5447 21.8546H52.7215ZM22.4931 77.961C22.4931 77.961 34.5633 69.8482 43.1301 69.8482C51.697 69.8482 63.7671 77.961 63.7671 77.961L43.1301 42.1189L22.4931 77.961Z" fill="url(#paint0_linear_1_338)"/>
<path d="M441.687 54.0584C439.826 50.9087 437.218 48.4301 433.862 46.6227C430.558 44.8153 426.761 43.9087 422.468 43.9087C418.176 43.9087 414.461 44.8153 411.152 46.6227C407.849 48.4301 405.235 50.9381 403.327 54.1409C401.413 57.2906 400.46 60.9349 400.46 65.0678C400.46 69.2007 401.413 72.792 403.327 75.9947C405.241 79.1974 407.849 81.729 411.152 83.5894C414.461 85.3968 418.229 86.3034 422.468 86.3034C426.708 86.3034 430.553 85.3968 433.862 83.5894C437.218 81.729 439.826 79.1974 441.687 75.9947C443.6 72.792 444.554 69.1477 444.554 65.0678C444.554 60.9879 443.6 57.2141 441.687 54.0643V54.0584ZM433.161 71.956C432.131 73.9165 430.682 75.4177 428.822 76.448C426.961 77.4783 424.847 77.9964 422.468 77.9964C420.09 77.9964 418.053 77.4783 416.192 76.448C414.384 75.4177 412.936 73.9165 411.853 71.956C410.769 69.9955 410.228 67.6935 410.228 65.0619C410.228 62.4302 410.769 60.0753 411.853 58.1678C412.936 56.2073 414.384 54.7061 416.192 53.6758C418.053 52.6455 420.172 52.1274 422.545 52.1274C424.918 52.1274 426.961 52.6455 428.822 53.6758C430.682 54.7061 432.131 56.2073 433.161 58.1678C434.244 60.0812 434.786 62.3773 434.786 65.0619C434.786 67.7465 434.244 69.9955 433.161 71.956Z" fill="black"/>
<path d="M358.273 44.9154C360.028 43.2081 362.124 41.8952 364.549 40.965C366.975 40.0348 369.613 39.5697 372.451 39.5697C375.289 39.5697 378.08 40.0878 380.511 41.1181C382.99 42.1013 385.292 43.6496 387.406 45.7691L393.759 39.5697C391.227 36.679 388.101 34.483 384.386 32.9818C380.718 31.4864 376.584 30.7328 371.986 30.7328C367.752 30.7328 363.849 31.4275 360.287 32.8228C356.724 34.1651 353.598 36.102 350.913 38.6336C348.281 41.1122 346.238 44.0559 344.79 47.4646C343.341 50.8734 342.617 54.5942 342.617 58.6211C342.617 62.6481 343.341 66.3689 344.79 69.7777C346.238 73.1864 348.275 76.1595 350.913 78.6911C353.545 81.1697 356.618 83.1066 360.134 84.5019C363.696 85.8442 367.599 86.5154 371.833 86.5154C375.654 86.5154 379.428 85.9443 383.149 84.8081C386.917 83.6188 390.226 81.8879 393.07 79.6154V57.9971H383.538V74.8584C382.431 75.5002 381.295 76.03 380.129 76.4363C377.65 77.2605 375.065 77.6785 372.38 77.6785C369.489 77.6785 366.852 77.2134 364.479 76.2832C362.1 75.353 360.033 74.0342 358.279 72.3328C356.524 70.5783 355.152 68.5354 354.169 66.2099C353.239 63.8844 352.774 61.3529 352.774 58.6153C352.774 55.8776 353.239 53.2695 354.169 50.944C355.152 48.6185 356.518 46.6051 358.279 44.8977L358.273 44.9154Z" fill="black"/>
<path d="M331.006 78.3084C329.199 78.3084 327.78 77.7668 326.743 76.6835C325.76 75.6002 325.271 74.0754 325.271 72.1091V52.4277H336.352V44.6799H325.271V35.2248H315.586V44.6799H308.768V52.4277H315.586V72.3387C315.586 76.9367 316.828 80.422 319.307 82.8005C321.786 85.126 325.301 86.2858 329.846 86.2858C331.601 86.2858 333.308 86.0562 334.963 85.5911C336.617 85.126 338.013 84.4313 339.149 83.5011L336.435 76.607C334.986 77.7432 333.179 78.3143 331.012 78.3143L331.006 78.3084Z" fill="black"/>
<path d="M295.025 45.8456C292.441 44.5563 289.497 43.9087 286.194 43.9087C282.578 43.9087 279.375 44.6328 276.584 46.0811C274.742 47.0231 273.193 48.2476 271.933 49.7548V44.3797H262.713V86.533H272.398V64.8382C272.398 62.0476 272.863 59.7515 273.794 57.9441C274.777 56.0837 276.143 54.6884 277.903 53.7582C279.658 52.828 281.678 52.3629 283.95 52.3629C287.047 52.3629 289.45 53.2695 291.157 55.077C292.912 56.8844 293.789 59.622 293.789 63.2898V86.533H303.474V62.0476C303.474 57.8617 302.727 54.4529 301.225 51.8213C299.73 49.1366 297.663 47.1467 295.025 45.8574V45.8456Z" fill="black"/>
<path d="M244.867 46.5403C241.716 44.7859 238.125 43.9087 234.098 43.9087C230.07 43.9087 226.273 44.8153 223.017 46.6227C219.814 48.4301 217.282 50.9381 215.421 54.1409C213.614 57.2906 212.707 60.9349 212.707 65.0678C212.707 69.2007 213.637 72.792 215.498 75.9947C217.411 79.1974 220.073 81.729 223.482 83.5894C226.944 85.3968 230.971 86.3034 235.57 86.3034C239.185 86.3034 242.388 85.7324 245.179 84.5961C248.022 83.4069 250.372 81.729 252.232 79.5624L247.039 73.5985C245.591 75.1469 243.942 76.2832 242.082 77.0073C240.221 77.7315 238.131 78.0906 235.805 78.0906C233.12 78.0906 230.741 77.5725 228.675 76.5422C226.608 75.5119 225.007 74.0342 223.87 72.1267C223.152 70.9198 222.663 69.6069 222.398 68.1763H254.864C254.917 67.7112 254.941 67.2225 254.941 66.7045C254.994 66.1864 255.017 65.7213 255.017 65.3092C255.017 60.9702 254.11 57.1964 252.303 53.9937C250.495 50.791 248.017 48.3124 244.867 46.558V46.5403ZM222.316 61.7297C222.528 60.1813 222.964 58.7801 223.635 57.5438C224.665 55.6834 226.061 54.2351 227.821 53.2048C229.629 52.1745 231.719 51.6564 234.098 51.6564C236.476 51.6564 238.46 52.1745 240.221 53.2048C242.029 54.2351 243.448 55.6598 244.484 57.4672C245.214 58.7448 245.667 60.1695 245.856 61.7297H222.322H222.316Z" fill="black"/>
<path d="M195.709 49.9138C194.343 48.2594 192.718 46.9465 190.828 46.0046C188.037 44.6093 184.887 43.9146 181.372 43.9146C177.444 43.9146 173.882 44.7388 170.679 46.3931C167.529 48.0475 165.021 50.373 163.16 53.3637C161.353 56.3604 160.446 59.8457 160.446 63.8256C160.446 67.8054 161.347 71.3672 163.16 74.3639C165.021 77.3606 167.523 79.7096 170.679 81.4169C173.882 83.0713 177.444 83.8955 181.372 83.8955C184.887 83.8955 188.037 83.2008 190.828 81.8055C192.506 80.9342 193.978 79.7861 195.243 78.3732V80.5633C195.243 84.7492 194.184 87.8754 192.064 89.9359C189.944 92.0554 186.612 93.1151 182.066 93.1151C179.222 93.1151 176.408 92.65 173.617 91.7198C170.879 90.8426 168.607 89.6533 166.799 88.1579L162.46 95.4406C164.785 97.354 167.753 98.7964 171.374 99.7796C175.042 100.81 178.787 101.328 182.608 101.328C189.838 101.328 195.367 99.5441 199.188 95.9822C203.01 92.4675 204.923 86.9687 204.923 79.48V44.3797H195.703V49.9196L195.709 49.9138ZM193.771 70.019C192.735 71.7735 191.263 73.1688 189.356 74.2049C187.442 75.1881 185.275 75.6768 182.844 75.6768C180.412 75.6768 178.222 75.1881 176.255 74.2049C174.341 73.1747 172.846 71.7794 171.763 70.019C170.726 68.2116 170.214 66.1452 170.214 63.8197C170.214 61.4942 170.732 59.4571 171.763 57.6968C172.846 55.8894 174.347 54.5177 176.255 53.5875C178.216 52.6043 180.412 52.1156 182.844 52.1156C185.275 52.1156 187.442 52.6043 189.356 53.5875C191.269 54.5177 192.741 55.8835 193.771 57.6968C194.855 59.4513 195.397 61.4942 195.397 63.8197C195.397 66.1452 194.855 68.2116 193.771 70.019Z" fill="black"/>
<path d="M125.413 31.5099L100.413 86.5213H110.799L116.57 73.1923H144.078L149.871 86.5213H160.411L135.334 31.5099H125.413ZM119.996 65.2915L130.3 41.5007L140.645 65.2915H119.996Z" fill="black"/>
<path d="M467.19 86V31.4H491.682C497.974 31.4 502.81 32.674 506.19 35.222C509.57 37.718 511.26 41.15 511.26 45.518C511.26 48.482 510.584 50.978 509.232 53.006C507.932 55.034 506.164 56.594 503.928 57.686C501.692 58.778 499.274 59.324 496.674 59.324L498.078 56.984C501.198 56.984 503.954 57.53 506.346 58.622C508.738 59.714 510.636 61.326 512.04 63.458C513.444 65.538 514.146 68.138 514.146 71.258C514.146 75.938 512.378 79.578 508.842 82.178C505.358 84.726 500.158 86 493.242 86H467.19ZM474.99 79.682H492.93C497.246 79.682 500.548 78.954 502.836 77.498C505.124 76.042 506.268 73.754 506.268 70.634C506.268 67.462 505.124 65.148 502.836 63.692C500.548 62.236 497.246 61.508 492.93 61.508H474.288V55.19H490.98C494.932 55.19 498 54.462 500.184 53.006C502.368 51.55 503.46 49.366 503.46 46.454C503.46 43.542 502.368 41.358 500.184 39.902C498 38.446 494.932 37.718 490.98 37.718H474.99V79.682ZM523.131 86V44.66H530.619V86H523.131ZM526.875 36.704C525.419 36.704 524.197 36.236 523.209 35.3C522.273 34.364 521.805 33.22 521.805 31.868C521.805 30.464 522.273 29.294 523.209 28.358C524.197 27.422 525.419 26.954 526.875 26.954C528.331 26.954 529.527 27.422 530.463 28.358C531.451 29.242 531.945 30.36 531.945 31.712C531.945 33.116 531.477 34.312 530.541 35.3C529.605 36.236 528.383 36.704 526.875 36.704ZM538.938 86V81.164L565.458 48.248L566.94 50.822H539.406V44.66H572.946V49.574L546.426 82.412L544.71 79.838H573.57V86H538.938Z" fill="#1C398E"/>
<defs>
<linearGradient id="paint0_linear_1_338" x1="43.136" y1="21.8546" x2="43.136" y2="96.0705" gradientUnits="userSpaceOnUse">
<stop stop-color="#003EC3"/>
<stop offset="1" stop-color="#0091FF"/>
</linearGradient>
</defs>
</svg>
